<svg xmlns="http://www.w3.org/2000/svg" viewBox="0 0 512 512" width="512" height="512">
  <defs>
    <linearGradient id="bg" x1="0" y1="0" x2="0.5" y2="1">
      <stop offset="0%" stop-color="#8B5CF6"/>
      <stop offset="100%" stop-color="#4C1D95"/>
    </linearGradient>

    <radialGradient id="glow" cx="0.5" cy="0.4" r="0.28">
      <stop offset="0%" stop-color="#FDE68A" stop-opacity="0.2"/>
      <stop offset="100%" stop-color="#FDE68A" stop-opacity="0"/>
    </radialGradient>
  </defs>

  <!-- Background -->
  <rect width="512" height="512" fill="url(#bg)"/>

  <!-- Glow -->
  <ellipse cx="256" cy="210" rx="150" ry="150" fill="url(#glow)"/>

  <!-- Heroicons bulb: globe only, neck removed, bottom closed with a curve -->
  <g transform="translate(256, 256) scale(18) translate(-12, -12.5)">
    <path fill="white" d="M12 .75a8.25 8.25 0 0 0-4.135 15.39q4.135 1.8 8.27 0A8.25 8.25 0 0 0 12 .75Z"/>
    <path fill="white" fill-rule="evenodd" d="M9.013 19.9a.75.75 0 0 1 .877-.597 11.319 11.319 0 0 0 4.22 0 .75.75 0 1 1 .28 1.473 12.819 12.819 0 0 1-4.78 0 .75.75 0 0 1-.597-.876ZM9.754 22.344a.75.75 0 0 1 .824-.668 13.682 13.682 0 0 0 2.844 0 .75.75 0 1 1 .156 1.492 15.156 15.156 0 0 1-3.156 0 .75.75 0 0 1-.668-.824Z" clip-rule="evenodd"/>
  </g>

  <!-- Circle-check cutout centered in bulb globe -->
  <circle cx="256" cy="193" r="60" fill="url(#bg)"/>
  <path d="M232 193 L250 213 L284 171" fill="none" stroke="white" stroke-width="13" stroke-linecap="round" stroke-linejoin="round"/>
</svg>
